<?xml version="1.0" encoding="utf-8"?>
<!-- Generator: Adobe Illustrator 27.3.1, SVG Export Plug-In . SVG Version: 6.00 Build 0)  -->
<svg version="1.1" id="Layer_1" xmlns="http://www.w3.org/2000/svg" xmlns:xlink="http://www.w3.org/1999/xlink" x="0px" y="0px"
	 viewBox="0 0 200 200" style="enable-background:new 0 0 200 200;" xml:space="preserve">
<style type="text/css">
	.st0{fill:#FF7900;}
	.st1{fill:#0D0D0C;}
</style>
<path class="st0" d="M200,100c0,55.2-44.8,100-100,100C44.8,200,0,155.2,0,100C0,44.8,44.8,0,100,0C155.2,0,200,44.8,200,100z"/>
<path class="st1" d="M180.2,102.2l-0.3,2l-15.2,0.6l-0.1,0.6l14.3,5.3l-0.7,4.4l-15.2,0.5l-0.1,0.6l14.2,5.4l-0.3,2l-14.8-5.6
	l0.7-4.3l15.2-0.5l0.1-0.6l-14.2-5.3l0.7-4.3L180.2,102.2z"/>
<path class="st1" d="M167.8,124.7c2.1,1,3.5,2.5,4.3,4.3c0.8,1.8,0.6,3.8-0.4,5.8c-1,2-2.5,3.3-4.4,3.8c-1.9,0.5-3.9,0.3-6-0.7
	c-2.1-1-3.5-2.5-4.3-4.3c-0.8-1.8-0.6-3.8,0.3-5.8c1-2,2.5-3.3,4.4-3.9C163.7,123.5,165.7,123.7,167.8,124.7z M166.9,126.7
	c-1.7-0.8-3.2-1.1-4.6-0.8c-1.4,0.3-2.5,1.2-3.2,2.8c-0.7,1.5-0.8,2.9-0.2,4.2c0.6,1.3,1.7,2.4,3.4,3.2c1.7,0.8,3.2,1.1,4.6,0.8
	c1.4-0.3,2.5-1.2,3.2-2.7c0.8-1.5,0.8-2.9,0.2-4.2C169.7,128.5,168.5,127.5,166.9,126.7z"/>
<path class="st1" d="M153.1,136.3l12,9.9l-3.4,4.1c-1.3,1.6-2.5,2.5-3.7,3c-1.2,0.4-2.4,0.1-3.6-0.9c-1.6-1.3-1.9-2.9-0.8-4.7
	l-0.4-0.4l-1.2,1.5c-0.6,0.7-1.2,0.8-1.9,0.2l-4.4-3.6l1.4-1.6l4.7,3.9l4.8-5.7l-4.7-3.9L153.1,136.3z M157.8,143l-2,2.4
	c-0.4,0.5-0.7,0.8-0.9,1.1c-0.2,0.3-0.4,0.6-0.5,1c-0.2,0.4-0.2,0.7-0.2,1c0,0.3,0.1,0.6,0.3,0.9c0.2,0.3,0.5,0.7,0.9,1
	c0.4,0.3,0.8,0.6,1.1,0.7c0.4,0.1,0.7,0.2,1,0.1c0.3,0,0.6-0.2,0.9-0.4c0.3-0.2,0.6-0.5,0.9-0.7c0.2-0.3,0.6-0.6,0.9-1.1l2-2.4
	L157.8,143z"/>
<path class="st1" d="M143.4,167l2.7-11.9l-12.2-0.4l2.5-1.9l10,0.3l-3.9-5l1.7-1.3l9.5,12.3l-1.7,1.3l-3.9-5l-2.2,9.7L143.4,167z"/>
<path class="st1" d="M133.3,173l-2,0.6l-7.2-13.4l-0.5,0.2l1.5,15.1l-4.3,1.3l-7.1-13.4l-0.5,0.2l1.4,15.2l-2,0.6l-1.5-15.8l4.2-1.3
	l7.2,13.4l0.5-0.2l-1.5-15.1l4.2-1.3L133.3,173z"/>
<path class="st1" d="M98.9,177.8l3.5-0.1l-0.5-11.8l-3.5,0.1l-0.1-1.8l9.1-0.4l0.1,1.8l-3.5,0.1l0.5,11.8l3.5-0.1l0.1,1.8l-9.1,0.4
	L98.9,177.8z"/>
<path class="st1" d="M81.7,177.7l0.3-1.8l5.3,0.8l2-13.5l2.1,0.3l-2,13.5l5.3,0.8l-0.3,1.8L81.7,177.7z"/>
<path class="st1" d="M66.5,172.3l-2-0.8l5.8-14.4l2,0.8l-2.5,6.2l8.2,3.3l2.5-6.2l2,0.8l-5.8,14.4l-2-0.8l2.6-6.5l-8.2-3.3
	L66.5,172.3z"/>
<path class="st1" d="M63.5,153.3L53,164.8l-3.2-2.9l7.1-13.7l-0.4-0.4l-13,8.4l-3.2-2.9l10.4-11.5l1.6,1.4l-9.1,10l-1.2,0.8l0.4,0.4
	l13-8.3l3.2,2.9l-7,13.8l0.4,0.4l0.7-1.3l9.1-10L63.5,153.3z"/>
<path class="st1" d="M49.5,139.7l-12.9,8.7l-5.5-8.2l1.5-1l4.3,6.4l4.1-2.8l-3.7-5.5l1.5-1l3.7,5.5l4.1-2.8l-4.3-6.4l1.5-1
	L49.5,139.7z"/>
<path class="st1" d="M19.9,96l0.4-2l15.2-0.2l0.1-0.6l-14.1-5.6l0.8-4.4L37.4,83l0.1-0.6l-14.1-5.7l0.4-2l14.7,6L37.7,85l-15.2,0.2
	l-0.1,0.6l14.1,5.6l-0.8,4.3L19.9,96z"/>
<path class="st1" d="M32.7,73.9c-2.1-1.1-3.4-2.5-4.2-4.4c-0.7-1.9-0.6-3.8,0.5-5.8c1-2,2.5-3.2,4.5-3.7c1.9-0.5,3.9-0.2,6,0.9
	c2.1,1.1,3.5,2.5,4.2,4.4c0.7,1.9,0.6,3.8-0.5,5.8c-1,2-2.5,3.3-4.5,3.8C36.8,75.3,34.7,75,32.7,73.9z M33.7,72
	c1.7,0.9,3.2,1.1,4.6,0.9c1.4-0.3,2.5-1.2,3.3-2.7c0.8-1.5,0.9-2.9,0.3-4.2c-0.6-1.3-1.7-2.4-3.3-3.2c-1.6-0.9-3.2-1.1-4.6-0.9
	c-1.4,0.3-2.5,1.2-3.3,2.7c-0.8,1.5-0.9,2.9-0.3,4.2C30.9,70.1,32,71.1,33.7,72z"/>
<path class="st1" d="M47.6,62.8L35.8,52.6l3.5-4c1.3-1.5,2.6-2.5,3.7-2.9c1.2-0.4,2.4-0.1,3.6,1c1.6,1.4,1.8,2.9,0.7,4.7l0.4,0.4
	l1.3-1.5c0.6-0.7,1.2-0.7,1.9-0.2l4.3,3.7l-1.4,1.6l-4.6-4l-4.9,5.6l4.6,4L47.6,62.8z M43,56l2.1-2.4c0.4-0.4,0.7-0.8,0.9-1.1
	c0.2-0.3,0.4-0.6,0.6-1c0.2-0.4,0.2-0.7,0.2-1c0-0.3-0.1-0.6-0.3-0.9c-0.2-0.3-0.5-0.7-0.9-1c-0.4-0.3-0.8-0.6-1.1-0.7
	c-0.4-0.1-0.7-0.2-1-0.2c-0.3,0-0.6,0.1-0.9,0.4c-0.3,0.2-0.6,0.4-0.9,0.7c-0.3,0.2-0.6,0.6-1,1l-2.1,2.4L43,56z"/>
<path class="st1" d="M58,32.2L55,44l12.2,0.6l-2.5,1.9l-10-0.5l3.8,5.1l-1.7,1.3l-9.2-12.5l1.7-1.3l3.8,5.1l2.4-9.7L58,32.2z"/>
<path class="st1" d="M67.9,26.4l2-0.6l6.9,13.6l0.6-0.2l-1.2-15.2l4.3-1.2l6.8,13.6l0.6-0.2l-1.1-15.2l2-0.6l1.1,15.8l-4.2,1.2
	L78.8,24l-0.6,0.2l1.2,15.2l-4.2,1.2L67.9,26.4z"/>
<path class="st1" d="M102.9,22.3l-3.5,0.1l0.2,11.8l3.5-0.1l0,1.8l-9.1,0.2l0-1.8l3.5-0.1l-0.2-11.8l-3.5,0.1l0-1.8l9.1-0.2
	L102.9,22.3z"/>
<path class="st1" d="M119.7,22.7l-0.3,1.8l-5.2-0.9l-2.4,13.5l-2.1-0.4l2.4-13.5l-5.2-0.9l0.3-1.8L119.7,22.7z"/>
<path class="st1" d="M134.8,28.4l2,0.8l-6.1,14.3l-2-0.8l2.6-6.2l-8.2-3.5l-2.6,6.2l-2-0.8l6.1-14.3l2,0.8l-2.7,6.4l8.2,3.5
	L134.8,28.4z"/>
<path class="st1" d="M137.5,47.3l10.7-11.2l3.1,2.9l-7.4,13.6l0.4,0.4l13.2-8.1l3.1,2.9l-10.7,11.2l-1.5-1.5l9.3-9.8l1.3-0.8
	l-0.4-0.4l-13.2,8l-3.1-2.9l7.3-13.6l-0.4-0.4l-0.7,1.3l-9.3,9.8L137.5,47.3z"/>
<path class="st1" d="M151.4,61.5l13.1-8.3l5.3,8.3l-1.6,1L164,56l-4.2,2.7l3.6,5.6l-1.6,1l-3.6-5.6l-4.2,2.7l4.2,6.5l-1.6,1
	L151.4,61.5z"/>
<circle class="st1" cx="170.7" cy="82.4" r="3.5"/>
<circle class="st1" cx="29.1" cy="116.2" r="3.5"/>
</svg>
